<?xml version="1.0" standalone="no"?>
<!DOCTYPE svg PUBLIC "-//W3C//DTD SVG 20010904//EN"
 "http://www.w3.org/TR/2001/REC-SVG-20010904/DTD/svg10.dtd">
<svg version="1.0" xmlns="http://www.w3.org/2000/svg"
 width="16.000000pt" height="16.000000pt" viewBox="0 0 16.000000 16.000000"
 preserveAspectRatio="xMidYMid meet">
<metadata>
Created by potrace 1.11, written by Peter Selinger 2001-2013
</metadata>
<g transform="translate(0.000000,16.000000) scale(0.003125,-0.003125)"
fill="#000000" stroke="none">
<path d="M0 2560 l0 -2560 2560 0 2560 0 0 2560 0 2560 -2560 0 -2560 0 0
-2560z m2880 1230 l0 -300 210 0 210 0 0 -240 0 -240 -210 0 -211 0 3 -657 c3
-616 4 -661 22 -701 40 -92 102 -116 289 -110 l127 4 -2 -235 -3 -236 -75 -17
c-129 -30 -295 -41 -416 -28 -311 33 -478 168 -556 447 -22 77 -22 92 -26 806
l-3 727 -174 0 -175 0 0 240 0 240 175 0 175 0 0 300 0 300 320 0 320 0 0
-300z"/>
</g>
</svg>
